<svg xmlns="http://www.w3.org/2000/svg" xmlns:xlink="http://www.w3.org/1999/xlink" width="1080" zoomAndPan="magnify" viewBox="0 0 810 809.999993" height="1080" preserveAspectRatio="xMidYMid meet" version="1.0"><defs><clipPath id="d413df20b5"><path d="M 17.597656 17.597656 L 792.347656 17.597656 L 792.347656 792.347656 L 17.597656 792.347656 Z M 17.597656 17.597656 " clip-rule="nonzero"/></clipPath><clipPath id="067501c30f"><path d="M 226.023438 17.597656 L 583.917969 17.597656 C 587.332031 17.597656 590.738281 17.679688 594.144531 17.847656 C 597.554688 18.015625 600.953125 18.265625 604.347656 18.601562 C 607.742188 18.933594 611.128906 19.351562 614.503906 19.851562 C 617.875 20.351562 621.234375 20.9375 624.582031 21.601562 C 627.925781 22.265625 631.253906 23.015625 634.5625 23.84375 C 637.871094 24.671875 641.160156 25.582031 644.421875 26.570312 C 647.6875 27.5625 650.925781 28.632812 654.136719 29.78125 C 657.347656 30.929688 660.53125 32.15625 663.679688 33.460938 C 666.832031 34.769531 669.949219 36.148438 673.035156 37.609375 C 676.117188 39.066406 679.164062 40.601562 682.171875 42.207031 C 685.179688 43.816406 688.148438 45.496094 691.074219 47.25 C 694 49.003906 696.878906 50.828125 699.714844 52.722656 C 702.550781 54.617188 705.339844 56.582031 708.078125 58.613281 C 710.820312 60.644531 713.507812 62.742188 716.144531 64.90625 C 718.78125 67.070312 721.363281 69.300781 723.890625 71.589844 C 726.417969 73.878906 728.886719 76.230469 731.300781 78.644531 C 733.710938 81.054688 736.0625 83.527344 738.355469 86.054688 C 740.644531 88.582031 742.871094 91.164062 745.035156 93.800781 C 747.199219 96.4375 749.296875 99.125 751.328125 101.863281 C 753.363281 104.605469 755.324219 107.390625 757.21875 110.226562 C 759.117188 113.0625 760.941406 115.945312 762.695312 118.871094 C 764.445312 121.796875 766.128906 124.765625 767.734375 127.773438 C 769.34375 130.78125 770.878906 133.828125 772.335938 136.910156 C 773.792969 139.992188 775.175781 143.109375 776.480469 146.261719 C 777.785156 149.414062 779.015625 152.59375 780.164062 155.808594 C 781.3125 159.019531 782.382812 162.257812 783.371094 165.519531 C 784.363281 168.785156 785.273438 172.070312 786.101562 175.378906 C 786.929688 178.6875 787.675781 182.015625 788.34375 185.363281 C 789.007812 188.707031 789.589844 192.066406 790.089844 195.441406 C 790.589844 198.816406 791.007812 202.199219 791.34375 205.59375 C 791.675781 208.988281 791.929688 212.390625 792.097656 215.796875 C 792.261719 219.203125 792.347656 222.613281 792.347656 226.023438 L 792.347656 583.917969 C 792.347656 587.332031 792.261719 590.738281 792.097656 594.144531 C 791.929688 597.554688 791.675781 600.953125 791.34375 604.347656 C 791.007812 607.742188 790.589844 611.128906 790.089844 614.503906 C 789.589844 617.875 789.007812 621.234375 788.34375 624.582031 C 787.675781 627.925781 786.929688 631.253906 786.101562 634.5625 C 785.273438 637.871094 784.363281 641.160156 783.371094 644.421875 C 782.382812 647.6875 781.3125 650.925781 780.164062 654.136719 C 779.015625 657.347656 777.785156 660.53125 776.480469 663.679688 C 775.175781 666.832031 773.792969 669.949219 772.335938 673.035156 C 770.878906 676.117188 769.34375 679.164062 767.734375 682.171875 C 766.128906 685.179688 764.445312 688.148438 762.695312 691.074219 C 760.941406 694 759.117188 696.878906 757.21875 699.714844 C 755.324219 702.550781 753.363281 705.339844 751.328125 708.078125 C 749.296875 710.820312 747.199219 713.507812 745.035156 716.144531 C 742.871094 718.78125 740.644531 721.363281 738.355469 723.890625 C 736.0625 726.417969 733.710938 728.886719 731.300781 731.300781 C 728.886719 733.710938 726.417969 736.0625 723.890625 738.355469 C 721.363281 740.644531 718.78125 742.871094 716.144531 745.035156 C 713.507812 747.199219 710.820312 749.296875 708.078125 751.328125 C 705.339844 753.363281 702.550781 755.324219 699.714844 757.21875 C 696.878906 759.117188 694 760.941406 691.074219 762.695312 C 688.148438 764.445312 685.179688 766.128906 682.171875 767.734375 C 679.164062 769.34375 676.117188 770.878906 673.035156 772.335938 C 669.949219 773.792969 666.832031 775.175781 663.679688 776.480469 C 660.53125 777.785156 657.347656 779.015625 654.136719 780.164062 C 650.925781 781.3125 647.6875 782.382812 644.421875 783.371094 C 641.160156 784.363281 637.871094 785.273438 634.5625 786.101562 C 631.253906 786.929688 627.925781 787.675781 624.582031 788.34375 C 621.234375 789.007812 617.875 789.589844 614.503906 790.089844 C 611.128906 790.589844 607.742188 791.007812 604.347656 791.34375 C 600.953125 791.675781 597.554688 791.929688 594.144531 792.097656 C 590.738281 792.261719 587.332031 792.347656 583.917969 792.347656 L 226.023438 792.347656 C 222.613281 792.347656 219.203125 792.261719 215.796875 792.097656 C 212.390625 791.929688 208.988281 791.675781 205.59375 791.34375 C 202.199219 791.007812 198.816406 790.589844 195.441406 790.089844 C 192.066406 789.589844 188.707031 789.007812 185.363281 788.34375 C 182.015625 787.675781 178.6875 786.929688 175.378906 786.101562 C 172.070312 785.273438 168.785156 784.363281 165.519531 783.371094 C 162.257812 782.382812 159.019531 781.3125 155.808594 780.164062 C 152.59375 779.015625 149.414062 777.785156 146.261719 776.480469 C 143.109375 775.175781 139.992188 773.792969 136.910156 772.335938 C 133.828125 770.878906 130.78125 769.34375 127.773438 767.734375 C 124.765625 766.128906 121.796875 764.445312 118.871094 762.695312 C 115.945312 760.941406 113.0625 759.117188 110.226562 757.21875 C 107.390625 755.324219 104.605469 753.363281 101.863281 751.328125 C 99.125 749.296875 96.4375 747.199219 93.800781 745.035156 C 91.164062 742.871094 88.582031 740.644531 86.054688 738.355469 C 83.527344 736.0625 81.054688 733.710938 78.644531 731.300781 C 76.230469 728.886719 73.878906 726.417969 71.589844 723.890625 C 69.300781 721.363281 67.070312 718.78125 64.90625 716.144531 C 62.742188 713.507812 60.644531 710.820312 58.613281 708.078125 C 56.582031 705.339844 54.617188 702.550781 52.722656 699.714844 C 50.828125 696.878906 49.003906 694 47.25 691.074219 C 45.496094 688.148438 43.816406 685.179688 42.207031 682.171875 C 40.601562 679.164062 39.066406 676.117188 37.609375 673.035156 C 36.148438 669.949219 34.769531 666.832031 33.460938 663.679688 C 32.15625 660.53125 30.929688 657.347656 29.78125 654.136719 C 28.632812 650.925781 27.5625 647.6875 26.570312 644.421875 C 25.582031 641.160156 24.671875 637.871094 23.84375 634.5625 C 23.015625 631.253906 22.265625 627.925781 21.601562 624.582031 C 20.9375 621.234375 20.351562 617.875 19.851562 614.503906 C 19.351562 611.128906 18.933594 607.742188 18.601562 604.347656 C 18.265625 600.953125 18.015625 597.554688 17.847656 594.148438 C 17.679688 590.738281 17.597656 587.332031 17.597656 583.917969 L 17.597656 226.023438 C 17.597656 222.613281 17.679688 219.203125 17.847656 215.796875 C 18.015625 212.390625 18.265625 208.988281 18.601562 205.59375 C 18.933594 202.199219 19.351562 198.816406 19.851562 195.441406 C 20.351562 192.066406 20.9375 188.707031 21.601562 185.363281 C 22.265625 182.015625 23.015625 178.6875 23.84375 175.378906 C 24.671875 172.070312 25.582031 168.785156 26.570312 165.519531 C 27.5625 162.257812 28.632812 159.019531 29.78125 155.808594 C 30.929688 152.59375 32.15625 149.414062 33.460938 146.261719 C 34.769531 143.109375 36.148438 139.992188 37.609375 136.910156 C 39.066406 133.828125 40.601562 130.78125 42.207031 127.773438 C 43.816406 124.765625 45.496094 121.796875 47.25 118.871094 C 49.003906 115.945312 50.828125 113.0625 52.722656 110.226562 C 54.617188 107.390625 56.582031 104.605469 58.613281 101.863281 C 60.644531 99.125 62.742188 96.4375 64.90625 93.800781 C 67.070312 91.164062 69.300781 88.582031 71.589844 86.054688 C 73.878906 83.527344 76.230469 81.054688 78.644531 78.644531 C 81.054688 76.230469 83.527344 73.878906 86.054688 71.589844 C 88.582031 69.300781 91.164062 67.070312 93.800781 64.90625 C 96.4375 62.742188 99.125 60.644531 101.863281 58.613281 C 104.605469 56.582031 107.390625 54.617188 110.226562 52.722656 C 113.0625 50.828125 115.945312 49.003906 118.871094 47.25 C 121.796875 45.496094 124.765625 43.816406 127.773438 42.207031 C 130.78125 40.601562 133.828125 39.066406 136.910156 37.609375 C 139.992188 36.148438 143.109375 34.769531 146.261719 33.460938 C 149.414062 32.15625 152.59375 30.929688 155.808594 29.78125 C 159.019531 28.632812 162.257812 27.5625 165.519531 26.570312 C 168.785156 25.582031 172.070312 24.671875 175.378906 23.84375 C 178.6875 23.015625 182.015625 22.265625 185.363281 21.601562 C 188.707031 20.9375 192.066406 20.351562 195.441406 19.851562 C 198.816406 19.351562 202.199219 18.933594 205.59375 18.601562 C 208.988281 18.265625 212.390625 18.015625 215.796875 17.847656 C 219.203125 17.679688 222.613281 17.597656 226.023438 17.597656 Z M 226.023438 17.597656 " clip-rule="nonzero"/></clipPath><linearGradient x1="21.351882" gradientTransform="matrix(0.000000000000000201, -3.282839, 3.282839, 0.000000000000000201, 17.596872, 792.346812)" y1="-15.462292" x2="214.648923" gradientUnits="userSpaceOnUse" y2="251.461702" id="bb3b0c088c"><stop stop-opacity="1" stop-color="rgb(49.617004%, 66.291809%, 95.73822%)" offset="0"/><stop stop-opacity="1" stop-color="rgb(49.578857%, 66.012573%, 95.687866%)" offset="0.00390625"/><stop stop-opacity="1" stop-color="rgb(49.542236%, 65.734863%, 95.639038%)" offset="0.0078125"/><stop stop-opacity="1" stop-color="rgb(49.504089%, 65.455627%, 95.59021%)" offset="0.0117187"/><stop stop-opacity="1" stop-color="rgb(49.465942%, 65.176392%, 95.541382%)" offset="0.015625"/><stop stop-opacity="1" stop-color="rgb(49.427795%, 64.897156%, 95.491028%)" offset="0.0195312"/><stop stop-opacity="1" stop-color="rgb(49.391174%, 64.619446%, 95.4422%)" offset="0.0234375"/><stop stop-opacity="1" stop-color="rgb(49.353027%, 64.34021%, 95.391846%)" offset="0.0273438"/><stop stop-opacity="1" stop-color="rgb(49.31488%, 64.0625%, 95.343018%)" offset="0.03125"/><stop stop-opacity="1" stop-color="rgb(49.276733%, 63.783264%, 95.294189%)" offset="0.0351562"/><stop stop-opacity="1" stop-color="rgb(49.240112%, 63.505554%, 95.245361%)" offset="0.0390625"/><stop stop-opacity="1" stop-color="rgb(49.201965%, 63.226318%, 95.195007%)" offset="0.0429688"/><stop stop-opacity="1" stop-color="rgb(49.165344%, 62.947083%, 95.146179%)" offset="0.046875"/><stop stop-opacity="1" stop-color="rgb(49.127197%, 62.667847%, 95.097351%)" offset="0.0507812"/><stop stop-opacity="1" stop-color="rgb(49.08905%, 62.390137%, 95.048523%)" offset="0.0546875"/><stop stop-opacity="1" stop-color="rgb(49.050903%, 62.110901%, 94.998169%)" offset="0.0585938"/><stop stop-opacity="1" stop-color="rgb(49.014282%, 61.833191%, 94.949341%)" offset="0.0625"/><stop stop-opacity="1" stop-color="rgb(48.976135%, 61.553955%, 94.900513%)" offset="0.0664062"/><stop stop-opacity="1" stop-color="rgb(48.939514%, 61.274719%, 94.851685%)" offset="0.0703125"/><stop stop-opacity="1" stop-color="rgb(48.901367%, 60.995483%, 94.801331%)" offset="0.0742188"/><stop stop-opacity="1" stop-color="rgb(48.86322%, 60.717773%, 94.752502%)" offset="0.078125"/><stop stop-opacity="1" stop-color="rgb(48.825073%, 60.438538%, 94.702148%)" offset="0.0820312"/><stop stop-opacity="1" stop-color="rgb(48.788452%, 60.160828%, 94.65332%)" offset="0.0859375"/><stop stop-opacity="1" stop-color="rgb(48.750305%, 59.881592%, 94.604492%)" offset="0.0898438"/><stop stop-opacity="1" stop-color="rgb(48.712158%, 59.603882%, 94.555664%)" offset="0.09375"/><stop stop-opacity="1" stop-color="rgb(48.674011%, 59.324646%, 94.50531%)" offset="0.0976562"/><stop stop-opacity="1" stop-color="rgb(48.63739%, 59.04541%, 94.456482%)" offset="0.101563"/><stop stop-opacity="1" stop-color="rgb(48.599243%, 58.766174%, 94.407654%)" offset="0.105469"/><stop stop-opacity="1" stop-color="rgb(48.562622%, 58.488464%, 94.358826%)" offset="0.109375"/><stop stop-opacity="1" stop-color="rgb(48.524475%, 58.209229%, 94.308472%)" offset="0.113281"/><stop stop-opacity="1" stop-color="rgb(48.486328%, 57.931519%, 94.259644%)" offset="0.117187"/><stop stop-opacity="1" stop-color="rgb(48.448181%, 57.652283%, 94.210815%)" offset="0.121094"/><stop stop-opacity="1" stop-color="rgb(48.41156%, 57.374573%, 94.161987%)" offset="0.125"/><stop stop-opacity="1" stop-color="rgb(48.373413%, 57.095337%, 94.111633%)" offset="0.128906"/><stop stop-opacity="1" stop-color="rgb(48.336792%, 56.816101%, 94.062805%)" offset="0.132812"/><stop stop-opacity="1" stop-color="rgb(48.298645%, 56.536865%, 94.012451%)" offset="0.136719"/><stop stop-opacity="1" stop-color="rgb(48.260498%, 56.259155%, 93.963623%)" offset="0.140625"/><stop stop-opacity="1" stop-color="rgb(48.222351%, 55.979919%, 93.914795%)" offset="0.144531"/><stop stop-opacity="1" stop-color="rgb(48.18573%, 55.702209%, 93.865967%)" offset="0.148438"/><stop stop-opacity="1" stop-color="rgb(48.147583%, 55.422974%, 93.815613%)" offset="0.152344"/><stop stop-opacity="1" stop-color="rgb(48.109436%, 55.145264%, 93.766785%)" offset="0.15625"/><stop stop-opacity="1" stop-color="rgb(48.071289%, 54.866028%, 93.717957%)" offset="0.160156"/><stop stop-opacity="1" stop-color="rgb(48.034668%, 54.586792%, 93.669128%)" offset="0.164062"/><stop stop-opacity="1" stop-color="rgb(47.996521%, 54.307556%, 93.618774%)" offset="0.167969"/><stop stop-opacity="1" stop-color="rgb(47.9599%, 54.029846%, 93.569946%)" offset="0.171875"/><stop stop-opacity="1" stop-color="rgb(47.921753%, 53.75061%, 93.521118%)" offset="0.175781"/><stop stop-opacity="1" stop-color="rgb(47.883606%, 53.4729%, 93.47229%)" offset="0.179688"/><stop stop-opacity="1" stop-color="rgb(47.845459%, 53.193665%, 93.421936%)" offset="0.183594"/><stop stop-opacity="1" stop-color="rgb(47.808838%, 52.915955%, 93.373108%)" offset="0.1875"/><stop stop-opacity="1" stop-color="rgb(47.770691%, 52.636719%, 93.322754%)" offset="0.191406"/><stop stop-opacity="1" stop-color="rgb(47.73407%, 52.357483%, 93.273926%)" offset="0.195312"/><stop stop-opacity="1" stop-color="rgb(47.695923%, 52.078247%, 93.225098%)" offset="0.199219"/><stop stop-opacity="1" stop-color="rgb(47.657776%, 51.800537%, 93.17627%)" offset="0.203125"/><stop stop-opacity="1" stop-color="rgb(47.619629%, 51.521301%, 93.125916%)" offset="0.207031"/><stop stop-opacity="1" stop-color="rgb(47.583008%, 51.243591%, 93.077087%)" offset="0.210938"/><stop stop-opacity="1" stop-color="rgb(47.544861%, 50.964355%, 93.028259%)" offset="0.214844"/><stop stop-opacity="1" stop-color="rgb(47.506714%, 50.686646%, 92.979431%)" offset="0.21875"/><stop stop-opacity="1" stop-color="rgb(47.468567%, 50.40741%, 92.929077%)" offset="0.222656"/><stop stop-opacity="1" stop-color="rgb(47.431946%, 50.128174%, 92.880249%)" offset="0.226562"/><stop stop-opacity="1" stop-color="rgb(47.393799%, 49.848938%, 92.831421%)" offset="0.230469"/><stop stop-opacity="1" stop-color="rgb(47.357178%, 49.571228%, 92.782593%)" offset="0.234375"/><stop stop-opacity="1" stop-color="rgb(47.319031%, 49.291992%, 92.732239%)" offset="0.238281"/><stop stop-opacity="1" stop-color="rgb(47.280884%, 49.014282%, 92.683411%)" offset="0.242188"/><stop stop-opacity="1" stop-color="rgb(47.242737%, 48.735046%, 92.633057%)" offset="0.246094"/><stop stop-opacity="1" stop-color="rgb(47.206116%, 48.457336%, 92.584229%)" offset="0.25"/><stop stop-opacity="1" stop-color="rgb(47.167969%, 48.178101%, 92.5354%)" offset="0.253906"/><stop stop-opacity="1" stop-color="rgb(47.131348%, 47.898865%, 92.486572%)" offset="0.257812"/><stop stop-opacity="1" stop-color="rgb(47.093201%, 47.619629%, 92.436218%)" offset="0.261719"/><stop stop-opacity="1" stop-color="rgb(47.055054%, 47.341919%, 92.38739%)" offset="0.265625"/><stop stop-opacity="1" stop-color="rgb(47.016907%, 47.062683%, 92.338562%)" offset="0.269531"/><stop stop-opacity="1" stop-color="rgb(46.980286%, 46.784973%, 92.289734%)" offset="0.273438"/><stop stop-opacity="1" stop-color="rgb(46.942139%, 46.505737%, 92.23938%)" offset="0.277344"/><stop stop-opacity="1" stop-color="rgb(46.903992%, 46.226501%, 92.190552%)" offset="0.28125"/><stop stop-opacity="1" stop-color="rgb(46.865845%, 45.947266%, 92.141724%)" offset="0.285156"/><stop stop-opacity="1" stop-color="rgb(46.829224%, 45.669556%, 92.092896%)" offset="0.289062"/><stop stop-opacity="1" stop-color="rgb(46.791077%, 45.39032%, 92.042542%)" offset="0.292969"/><stop stop-opacity="1" stop-color="rgb(46.754456%, 45.11261%, 91.993713%)" offset="0.296875"/><stop stop-opacity="1" stop-color="rgb(46.716309%, 44.833374%, 91.943359%)" offset="0.300781"/><stop stop-opacity="1" stop-color="rgb(46.678162%, 44.555664%, 91.894531%)" offset="0.304688"/><stop stop-opacity="1" stop-color="rgb(46.640015%, 44.276428%, 91.845703%)" offset="0.308594"/><stop stop-opacity="1" stop-color="rgb(46.603394%, 43.997192%, 91.796875%)" offset="0.3125"/><stop stop-opacity="1" stop-color="rgb(46.565247%, 43.717957%, 91.746521%)" offset="0.316406"/><stop stop-opacity="1" stop-color="rgb(46.528625%, 43.440247%, 91.697693%)" offset="0.320312"/><stop stop-opacity="1" stop-color="rgb(46.490479%, 43.161011%, 91.648865%)" offset="0.324219"/><stop stop-opacity="1" stop-color="rgb(46.452332%, 42.883301%, 91.600037%)" offset="0.328125"/><stop stop-opacity="1" stop-color="rgb(46.414185%, 42.604065%, 91.549683%)" offset="0.332031"/><stop stop-opacity="1" stop-color="rgb(46.377563%, 42.326355%, 91.500854%)" offset="0.335938"/><stop stop-opacity="1" stop-color="rgb(46.339417%, 42.047119%, 91.452026%)" offset="0.339844"/><stop stop-opacity="1" stop-color="rgb(46.30127%, 41.767883%, 91.403198%)" offset="0.34375"/><stop stop-opacity="1" stop-color="rgb(46.263123%, 41.488647%, 91.352844%)" offset="0.347656"/><stop stop-opacity="1" stop-color="rgb(46.226501%, 41.210938%, 91.304016%)" offset="0.351562"/><stop stop-opacity="1" stop-color="rgb(46.188354%, 40.931702%, 91.255188%)" offset="0.355469"/><stop stop-opacity="1" stop-color="rgb(46.151733%, 40.653992%, 91.20636%)" offset="0.359375"/><stop stop-opacity="1" stop-color="rgb(46.113586%, 40.374756%, 91.156006%)" offset="0.363281"/><stop stop-opacity="1" stop-color="rgb(46.075439%, 40.097046%, 91.107178%)" offset="0.367187"/><stop stop-opacity="1" stop-color="rgb(46.037292%, 39.81781%, 91.056824%)" offset="0.371094"/><stop stop-opacity="1" stop-color="rgb(46.000671%, 39.538574%, 91.007996%)" offset="0.375"/><stop stop-opacity="1" stop-color="rgb(45.962524%, 39.259338%, 90.959167%)" offset="0.378906"/><stop stop-opacity="1" stop-color="rgb(45.924377%, 38.981628%, 90.910339%)" offset="0.382812"/><stop stop-opacity="1" stop-color="rgb(45.88623%, 38.702393%, 90.859985%)" offset="0.386719"/><stop stop-opacity="1" stop-color="rgb(45.849609%, 38.424683%, 90.811157%)" offset="0.390625"/><stop stop-opacity="1" stop-color="rgb(45.811462%, 38.145447%, 90.762329%)" offset="0.394531"/><stop stop-opacity="1" stop-color="rgb(45.774841%, 37.867737%, 90.713501%)" offset="0.398438"/><stop stop-opacity="1" stop-color="rgb(45.736694%, 37.588501%, 90.663147%)" offset="0.402344"/><stop stop-opacity="1" stop-color="rgb(45.698547%, 37.309265%, 90.614319%)" offset="0.40625"/><stop stop-opacity="1" stop-color="rgb(45.6604%, 37.030029%, 90.565491%)" offset="0.410156"/><stop stop-opacity="1" stop-color="rgb(45.623779%, 36.752319%, 90.516663%)" offset="0.414062"/><stop stop-opacity="1" stop-color="rgb(45.585632%, 36.473083%, 90.466309%)" offset="0.417969"/><stop stop-opacity="1" stop-color="rgb(45.549011%, 36.195374%, 90.41748%)" offset="0.421875"/><stop stop-opacity="1" stop-color="rgb(45.510864%, 35.916138%, 90.367126%)" offset="0.425781"/><stop stop-opacity="1" stop-color="rgb(45.472717%, 35.638428%, 90.318298%)" offset="0.429688"/><stop stop-opacity="1" stop-color="rgb(45.43457%, 35.359192%, 90.26947%)" offset="0.433594"/><stop stop-opacity="1" stop-color="rgb(45.397949%, 35.079956%, 90.220642%)" offset="0.4375"/><stop stop-opacity="1" stop-color="rgb(45.359802%, 34.80072%, 90.170288%)" offset="0.441406"/><stop stop-opacity="1" stop-color="rgb(45.321655%, 34.52301%, 90.12146%)" offset="0.445312"/><stop stop-opacity="1" stop-color="rgb(45.283508%, 34.243774%, 90.072632%)" offset="0.449219"/><stop stop-opacity="1" stop-color="rgb(45.246887%, 33.966064%, 90.023804%)" offset="0.453125"/><stop stop-opacity="1" stop-color="rgb(45.20874%, 33.686829%, 89.97345%)" offset="0.457031"/><stop stop-opacity="1" stop-color="rgb(45.172119%, 33.409119%, 89.924622%)" offset="0.460938"/><stop stop-opacity="1" stop-color="rgb(45.133972%, 33.129883%, 89.875793%)" offset="0.464844"/><stop stop-opacity="1" stop-color="rgb(45.095825%, 32.850647%, 89.826965%)" offset="0.46875"/><stop stop-opacity="1" stop-color="rgb(45.057678%, 32.571411%, 89.776611%)" offset="0.472656"/><stop stop-opacity="1" stop-color="rgb(45.021057%, 32.293701%, 89.727783%)" offset="0.476562"/><stop stop-opacity="1" stop-color="rgb(44.98291%, 32.014465%, 89.677429%)" offset="0.480469"/><stop stop-opacity="1" stop-color="rgb(44.946289%, 31.736755%, 89.628601%)" offset="0.484375"/><stop stop-opacity="1" stop-color="rgb(44.908142%, 31.45752%, 89.579773%)" offset="0.488281"/><stop stop-opacity="1" stop-color="rgb(44.869995%, 31.17981%, 89.530945%)" offset="0.492187"/><stop stop-opacity="1" stop-color="rgb(44.831848%, 30.900574%, 89.480591%)" offset="0.496094"/><stop stop-opacity="1" stop-color="rgb(44.795227%, 30.621338%, 89.431763%)" offset="0.5"/><stop stop-opacity="1" stop-color="rgb(44.75708%, 30.342102%, 89.382935%)" offset="0.503906"/><stop stop-opacity="1" stop-color="rgb(44.718933%, 30.064392%, 89.334106%)" offset="0.507812"/><stop stop-opacity="1" stop-color="rgb(44.680786%, 29.785156%, 89.283752%)" offset="0.511719"/><stop stop-opacity="1" stop-color="rgb(44.644165%, 29.507446%, 89.234924%)" offset="0.515625"/><stop stop-opacity="1" stop-color="rgb(44.606018%, 29.22821%, 89.186096%)" offset="0.519531"/><stop stop-opacity="1" stop-color="rgb(44.569397%, 28.948975%, 89.137268%)" offset="0.523438"/><stop stop-opacity="1" stop-color="rgb(44.53125%, 28.669739%, 89.086914%)" offset="0.527344"/><stop stop-opacity="1" stop-color="rgb(44.493103%, 28.392029%, 89.038086%)" offset="0.53125"/><stop stop-opacity="1" stop-color="rgb(44.454956%, 28.112793%, 88.987732%)" offset="0.535156"/><stop stop-opacity="1" stop-color="rgb(44.418335%, 27.835083%, 88.938904%)" offset="0.539062"/><stop stop-opacity="1" stop-color="rgb(44.380188%, 27.555847%, 88.890076%)" offset="0.542969"/><stop stop-opacity="1" stop-color="rgb(44.343567%, 27.278137%, 88.841248%)" offset="0.546875"/><stop stop-opacity="1" stop-color="rgb(44.30542%, 26.998901%, 88.790894%)" offset="0.550781"/><stop stop-opacity="1" stop-color="rgb(44.267273%, 26.719666%, 88.742065%)" offset="0.554688"/><stop stop-opacity="1" stop-color="rgb(44.229126%, 26.44043%, 88.693237%)" offset="0.558594"/><stop stop-opacity="1" stop-color="rgb(44.192505%, 26.16272%, 88.644409%)" offset="0.5625"/><stop stop-opacity="1" stop-color="rgb(44.154358%, 25.883484%, 88.594055%)" offset="0.566406"/><stop stop-opacity="1" stop-color="rgb(44.116211%, 25.605774%, 88.545227%)" offset="0.570312"/><stop stop-opacity="1" stop-color="rgb(44.078064%, 25.326538%, 88.496399%)" offset="0.574219"/><stop stop-opacity="1" stop-color="rgb(44.041443%, 25.048828%, 88.447571%)" offset="0.578125"/><stop stop-opacity="1" stop-color="rgb(44.003296%, 24.769592%, 88.397217%)" offset="0.582031"/><stop stop-opacity="1" stop-color="rgb(43.966675%, 24.490356%, 88.348389%)" offset="0.585938"/><stop stop-opacity="1" stop-color="rgb(43.928528%, 24.211121%, 88.298035%)" offset="0.589844"/><stop stop-opacity="1" stop-color="rgb(43.890381%, 23.933411%, 88.249207%)" offset="0.59375"/><stop stop-opacity="1" stop-color="rgb(43.852234%, 23.654175%, 88.200378%)" offset="0.597656"/><stop stop-opacity="1" stop-color="rgb(43.815613%, 23.376465%, 88.15155%)" offset="0.601562"/><stop stop-opacity="1" stop-color="rgb(43.777466%, 23.097229%, 88.101196%)" offset="0.605469"/><stop stop-opacity="1" stop-color="rgb(43.740845%, 22.819519%, 88.052368%)" offset="0.609375"/><stop stop-opacity="1" stop-color="rgb(43.702698%, 22.540283%, 88.00354%)" offset="0.613281"/><stop stop-opacity="1" stop-color="rgb(43.664551%, 22.261047%, 87.954712%)" offset="0.617188"/><stop stop-opacity="1" stop-color="rgb(43.626404%, 21.981812%, 87.904358%)" offset="0.621094"/><stop stop-opacity="1" stop-color="rgb(43.589783%, 21.704102%, 87.85553%)" offset="0.625"/><stop stop-opacity="1" stop-color="rgb(43.551636%, 21.424866%, 87.806702%)" offset="0.628906"/><stop stop-opacity="1" stop-color="rgb(43.513489%, 21.147156%, 87.757874%)" offset="0.632812"/><stop stop-opacity="1" stop-color="rgb(43.475342%, 20.86792%, 87.70752%)" offset="0.636719"/><stop stop-opacity="1" stop-color="rgb(43.438721%, 20.59021%, 87.658691%)" offset="0.640625"/><stop stop-opacity="1" stop-color="rgb(43.400574%, 20.310974%, 87.608337%)" offset="0.644531"/><stop stop-opacity="1" stop-color="rgb(43.363953%, 20.031738%, 87.559509%)" offset="0.648438"/><stop stop-opacity="1" stop-color="rgb(43.325806%, 19.752502%, 87.510681%)" offset="0.652344"/><stop stop-opacity="1" stop-color="rgb(43.287659%, 19.474792%, 87.461853%)" offset="0.65625"/><stop stop-opacity="1" stop-color="rgb(43.249512%, 19.195557%, 87.411499%)" offset="0.660156"/><stop stop-opacity="1" stop-color="rgb(43.212891%, 18.917847%, 87.362671%)" offset="0.664062"/><stop stop-opacity="1" stop-color="rgb(43.174744%, 18.638611%, 87.313843%)" offset="0.667969"/><stop stop-opacity="1" stop-color="rgb(43.138123%, 18.360901%, 87.265015%)" offset="0.671875"/><stop stop-opacity="1" stop-color="rgb(43.099976%, 18.081665%, 87.214661%)" offset="0.675781"/><stop stop-opacity="1" stop-color="rgb(43.061829%, 17.802429%, 87.165833%)" offset="0.679687"/><stop stop-opacity="1" stop-color="rgb(43.023682%, 17.523193%, 87.117004%)" offset="0.683594"/><stop stop-opacity="1" stop-color="rgb(42.987061%, 17.245483%, 87.068176%)" offset="0.6875"/><stop stop-opacity="1" stop-color="rgb(42.948914%, 16.966248%, 87.017822%)" offset="0.691406"/><stop stop-opacity="1" stop-color="rgb(42.910767%, 16.688538%, 86.968994%)" offset="0.695312"/><stop stop-opacity="1" stop-color="rgb(42.87262%, 16.409302%, 86.91864%)" offset="0.699219"/><stop stop-opacity="1" stop-color="rgb(42.835999%, 16.131592%, 86.869812%)" offset="0.703125"/><stop stop-opacity="1" stop-color="rgb(42.797852%, 15.852356%, 86.820984%)" offset="0.707031"/><stop stop-opacity="1" stop-color="rgb(42.76123%, 15.57312%, 86.772156%)" offset="0.710938"/><stop stop-opacity="1" stop-color="rgb(42.723083%, 15.293884%, 86.721802%)" offset="0.714844"/><stop stop-opacity="1" stop-color="rgb(42.684937%, 15.016174%, 86.672974%)" offset="0.71875"/><stop stop-opacity="1" stop-color="rgb(42.64679%, 14.736938%, 86.624146%)" offset="0.722656"/><stop stop-opacity="1" stop-color="rgb(42.610168%, 14.459229%, 86.575317%)" offset="0.726562"/><stop stop-opacity="1" stop-color="rgb(42.572021%, 14.179993%, 86.524963%)" offset="0.730469"/><stop stop-opacity="1" stop-color="rgb(42.5354%, 13.900757%, 86.476135%)" offset="0.734375"/><stop stop-opacity="1" stop-color="rgb(42.497253%, 13.621521%, 86.427307%)" offset="0.738281"/><stop stop-opacity="1" stop-color="rgb(42.459106%, 13.343811%, 86.378479%)" offset="0.742188"/><stop stop-opacity="1" stop-color="rgb(42.428589%, 13.121033%, 86.338806%)" offset="0.746094"/><stop stop-opacity="1" stop-color="rgb(42.399597%, 12.89978%, 86.299133%)" offset="0.75"/><stop stop-opacity="1" stop-color="rgb(42.399597%, 12.89978%, 86.299133%)" offset="1"/></linearGradient><clipPath id="8c41642f9d"><path d="M 177 167.730469 L 633 167.730469 L 633 642.480469 L 177 642.480469 Z M 177 167.730469 " clip-rule="nonzero"/></clipPath></defs><g clip-path="url(#d413df20b5)"><g clip-path="url(#067501c30f)"><path fill="url(#bb3b0c088c)" d="M 17.597656 792.347656 L 792.347656 792.347656 L 792.347656 17.597656 L 17.597656 17.597656 Z M 17.597656 792.347656 " fill-rule="nonzero"/></g></g><g clip-path="url(#8c41642f9d)"><path fill="#ffffff" d="M 291.875 322.082031 L 177.976562 627.144531 C 175.203125 634.574219 180.695312 642.488281 188.625 642.488281 L 285.496094 642.488281 C 290.3125 642.488281 294.605469 639.449219 296.210938 634.90625 L 323.265625 558.304688 L 356 460.191406 C 356.769531 457.882812 356.777344 455.378906 356.019531 453.0625 L 313.316406 322.523438 C 309.972656 312.304688 295.632812 312.011719 291.875 322.082031 Z M 452.703125 167.722656 L 366.28125 167.722656 C 358.464844 167.722656 352.984375 175.433594 355.542969 182.8125 L 404.078125 322.789062 L 404.144531 322.59375 L 483.777344 558.304688 L 511.390625 634.976562 C 513.015625 639.480469 517.289062 642.488281 522.082031 642.488281 L 621.367188 642.488281 C 629.296875 642.488281 634.785156 634.574219 632.011719 627.148438 L 463.351562 175.117188 C 461.6875 170.671875 457.449219 167.722656 452.703125 167.722656 " fill-opacity="1" fill-rule="nonzero"/></g></svg>